<mxfile host="app.diagrams.net" modified="2023-06-09T05:50:54.405Z" agent="Mozilla/5.0 (Macintosh; Intel Mac OS X 10_15_7) AppleWebKit/537.36 (KHTML, like Gecko) Chrome/113.0.0.0 Safari/537.36" etag="gg0lgC-TRzroFb5-kTt9" version="21.3.8" type="github">
  <diagram name="Page-1" id="8ce9d11a-91a2-4d17-14d8-a56ed91bf033">
    <mxGraphModel dx="1306" dy="843" grid="1" gridSize="10" guides="1" tooltips="1" connect="1" arrows="1" fold="1" page="1" pageScale="1" pageWidth="1100" pageHeight="850" background="none" math="0" shadow="0">
      <root>
        <mxCell id="0" />
        <mxCell id="1" parent="0" />
        <mxCell id="_9gmj-2kIgi6-tLGqkVm-63" value="" style="edgeStyle=none;rounded=0;orthogonalLoop=1;jettySize=auto;html=1;" edge="1" parent="1" source="_9gmj-2kIgi6-tLGqkVm-61" target="_9gmj-2kIgi6-tLGqkVm-62">
          <mxGeometry relative="1" as="geometry" />
        </mxCell>
        <mxCell id="_9gmj-2kIgi6-tLGqkVm-61" value="推荐人入口页面" style="ellipse;whiteSpace=wrap;html=1;" vertex="1" parent="1">
          <mxGeometry y="40" width="120" height="80" as="geometry" />
        </mxCell>
        <mxCell id="_9gmj-2kIgi6-tLGqkVm-65" value="" style="edgeStyle=none;rounded=0;orthogonalLoop=1;jettySize=auto;html=1;" edge="1" parent="1" source="_9gmj-2kIgi6-tLGqkVm-62" target="_9gmj-2kIgi6-tLGqkVm-64">
          <mxGeometry relative="1" as="geometry" />
        </mxCell>
        <mxCell id="_9gmj-2kIgi6-tLGqkVm-67" value="" style="edgeStyle=none;rounded=0;orthogonalLoop=1;jettySize=auto;html=1;" edge="1" parent="1" source="_9gmj-2kIgi6-tLGqkVm-62" target="_9gmj-2kIgi6-tLGqkVm-66">
          <mxGeometry relative="1" as="geometry" />
        </mxCell>
        <mxCell id="_9gmj-2kIgi6-tLGqkVm-62" value="是否登录" style="rhombus;whiteSpace=wrap;html=1;" vertex="1" parent="1">
          <mxGeometry x="190" y="40" width="110" height="80" as="geometry" />
        </mxCell>
        <mxCell id="_9gmj-2kIgi6-tLGqkVm-69" value="" style="edgeStyle=none;rounded=0;orthogonalLoop=1;jettySize=auto;html=1;" edge="1" parent="1" source="_9gmj-2kIgi6-tLGqkVm-64" target="_9gmj-2kIgi6-tLGqkVm-68">
          <mxGeometry relative="1" as="geometry" />
        </mxCell>
        <mxCell id="_9gmj-2kIgi6-tLGqkVm-71" value="" style="edgeStyle=none;rounded=0;orthogonalLoop=1;jettySize=auto;html=1;" edge="1" parent="1" source="_9gmj-2kIgi6-tLGqkVm-64" target="_9gmj-2kIgi6-tLGqkVm-70">
          <mxGeometry relative="1" as="geometry" />
        </mxCell>
        <mxCell id="_9gmj-2kIgi6-tLGqkVm-64" value="是否为黑名单" style="rhombus;whiteSpace=wrap;html=1;" vertex="1" parent="1">
          <mxGeometry x="190" y="150" width="110" height="80" as="geometry" />
        </mxCell>
        <mxCell id="_9gmj-2kIgi6-tLGqkVm-66" value="登录页面" style="ellipse;whiteSpace=wrap;html=1;" vertex="1" parent="1">
          <mxGeometry x="380" y="40" width="120" height="80" as="geometry" />
        </mxCell>
        <mxCell id="_9gmj-2kIgi6-tLGqkVm-68" value="黑名单页面" style="ellipse;whiteSpace=wrap;html=1;" vertex="1" parent="1">
          <mxGeometry x="190" y="260" width="110" height="70" as="geometry" />
        </mxCell>
        <mxCell id="_9gmj-2kIgi6-tLGqkVm-73" value="" style="edgeStyle=none;rounded=0;orthogonalLoop=1;jettySize=auto;html=1;" edge="1" parent="1" source="_9gmj-2kIgi6-tLGqkVm-70" target="_9gmj-2kIgi6-tLGqkVm-72">
          <mxGeometry relative="1" as="geometry" />
        </mxCell>
        <mxCell id="_9gmj-2kIgi6-tLGqkVm-75" value="" style="edgeStyle=none;rounded=0;orthogonalLoop=1;jettySize=auto;html=1;" edge="1" parent="1" source="_9gmj-2kIgi6-tLGqkVm-70" target="_9gmj-2kIgi6-tLGqkVm-74">
          <mxGeometry relative="1" as="geometry" />
        </mxCell>
        <mxCell id="_9gmj-2kIgi6-tLGqkVm-70" value="是否为非车主" style="rhombus;whiteSpace=wrap;html=1;" vertex="1" parent="1">
          <mxGeometry x="360" y="150" width="110" height="80" as="geometry" />
        </mxCell>
        <mxCell id="_9gmj-2kIgi6-tLGqkVm-72" value="非车主页面" style="ellipse;whiteSpace=wrap;html=1;" vertex="1" parent="1">
          <mxGeometry x="355" y="260" width="120" height="70" as="geometry" />
        </mxCell>
        <mxCell id="_9gmj-2kIgi6-tLGqkVm-77" value="" style="edgeStyle=none;rounded=0;orthogonalLoop=1;jettySize=auto;html=1;" edge="1" parent="1" source="_9gmj-2kIgi6-tLGqkVm-74" target="_9gmj-2kIgi6-tLGqkVm-76">
          <mxGeometry relative="1" as="geometry" />
        </mxCell>
        <mxCell id="_9gmj-2kIgi6-tLGqkVm-81" value="" style="edgeStyle=none;rounded=0;orthogonalLoop=1;jettySize=auto;html=1;" edge="1" parent="1" source="_9gmj-2kIgi6-tLGqkVm-74" target="_9gmj-2kIgi6-tLGqkVm-80">
          <mxGeometry relative="1" as="geometry" />
        </mxCell>
        <mxCell id="_9gmj-2kIgi6-tLGqkVm-74" value="是否已选择礼品" style="rhombus;whiteSpace=wrap;html=1;" vertex="1" parent="1">
          <mxGeometry x="540" y="150" width="100" height="80" as="geometry" />
        </mxCell>
        <mxCell id="_9gmj-2kIgi6-tLGqkVm-76" value="邀请留资页面" style="ellipse;whiteSpace=wrap;html=1;" vertex="1" parent="1">
          <mxGeometry x="520" y="270" width="140" height="70" as="geometry" />
        </mxCell>
        <mxCell id="_9gmj-2kIgi6-tLGqkVm-82" style="edgeStyle=none;rounded=0;orthogonalLoop=1;jettySize=auto;html=1;entryX=1;entryY=0.5;entryDx=0;entryDy=0;" edge="1" parent="1" source="_9gmj-2kIgi6-tLGqkVm-80" target="_9gmj-2kIgi6-tLGqkVm-76">
          <mxGeometry relative="1" as="geometry">
            <Array as="points">
              <mxPoint x="790" y="305" />
            </Array>
          </mxGeometry>
        </mxCell>
        <mxCell id="_9gmj-2kIgi6-tLGqkVm-80" value="选择礼品页面" style="ellipse;whiteSpace=wrap;html=1;" vertex="1" parent="1">
          <mxGeometry x="730" y="150" width="120" height="80" as="geometry" />
        </mxCell>
        <mxCell id="_9gmj-2kIgi6-tLGqkVm-92" value="" style="edgeStyle=none;rounded=0;orthogonalLoop=1;jettySize=auto;html=1;" edge="1" parent="1" source="_9gmj-2kIgi6-tLGqkVm-83" target="_9gmj-2kIgi6-tLGqkVm-91">
          <mxGeometry relative="1" as="geometry" />
        </mxCell>
        <mxCell id="_9gmj-2kIgi6-tLGqkVm-83" value="点击我的奖品按钮" style="rounded=1;whiteSpace=wrap;html=1;" vertex="1" parent="1">
          <mxGeometry x="450" y="405" width="120" height="60" as="geometry" />
        </mxCell>
        <mxCell id="_9gmj-2kIgi6-tLGqkVm-94" value="" style="edgeStyle=none;rounded=0;orthogonalLoop=1;jettySize=auto;html=1;" edge="1" parent="1" source="_9gmj-2kIgi6-tLGqkVm-87" target="_9gmj-2kIgi6-tLGqkVm-93">
          <mxGeometry relative="1" as="geometry" />
        </mxCell>
        <mxCell id="_9gmj-2kIgi6-tLGqkVm-87" value="点击立即邀请按钮" style="rounded=1;whiteSpace=wrap;html=1;" vertex="1" parent="1">
          <mxGeometry x="610" y="405" width="120" height="60" as="geometry" />
        </mxCell>
        <mxCell id="_9gmj-2kIgi6-tLGqkVm-88" value="" style="strokeWidth=2;html=1;shape=mxgraph.flowchart.annotation_2;align=left;labelPosition=right;pointerEvents=1;direction=south;" vertex="1" parent="1">
          <mxGeometry x="512.5" y="340" width="155" height="65" as="geometry" />
        </mxCell>
        <mxCell id="_9gmj-2kIgi6-tLGqkVm-96" value="" style="edgeStyle=none;rounded=0;orthogonalLoop=1;jettySize=auto;html=1;" edge="1" parent="1" source="_9gmj-2kIgi6-tLGqkVm-91">
          <mxGeometry relative="1" as="geometry">
            <mxPoint x="510" y="620" as="targetPoint" />
          </mxGeometry>
        </mxCell>
        <mxCell id="_9gmj-2kIgi6-tLGqkVm-98" value="" style="edgeStyle=none;rounded=0;orthogonalLoop=1;jettySize=auto;html=1;" edge="1" parent="1" source="_9gmj-2kIgi6-tLGqkVm-91" target="_9gmj-2kIgi6-tLGqkVm-97">
          <mxGeometry relative="1" as="geometry" />
        </mxCell>
        <mxCell id="_9gmj-2kIgi6-tLGqkVm-91" value="我的奖品页面" style="ellipse;whiteSpace=wrap;html=1;rounded=1;" vertex="1" parent="1">
          <mxGeometry x="450" y="490" width="120" height="80" as="geometry" />
        </mxCell>
        <mxCell id="_9gmj-2kIgi6-tLGqkVm-93" value="邀请渠道页面" style="ellipse;whiteSpace=wrap;html=1;rounded=1;" vertex="1" parent="1">
          <mxGeometry x="610" y="490" width="120" height="80" as="geometry" />
        </mxCell>
        <mxCell id="_9gmj-2kIgi6-tLGqkVm-100" value="" style="edgeStyle=none;rounded=0;orthogonalLoop=1;jettySize=auto;html=1;" edge="1" parent="1" source="_9gmj-2kIgi6-tLGqkVm-97" target="_9gmj-2kIgi6-tLGqkVm-99">
          <mxGeometry relative="1" as="geometry" />
        </mxCell>
        <mxCell id="_9gmj-2kIgi6-tLGqkVm-97" value="点击立即加油/充电" style="whiteSpace=wrap;html=1;rounded=1;" vertex="1" parent="1">
          <mxGeometry x="450" y="600" width="120" height="60" as="geometry" />
        </mxCell>
        <mxCell id="_9gmj-2kIgi6-tLGqkVm-102" value="" style="edgeStyle=none;rounded=0;orthogonalLoop=1;jettySize=auto;html=1;" edge="1" parent="1" source="_9gmj-2kIgi6-tLGqkVm-99">
          <mxGeometry relative="1" as="geometry">
            <mxPoint x="510" y="800" as="targetPoint" />
          </mxGeometry>
        </mxCell>
        <mxCell id="_9gmj-2kIgi6-tLGqkVm-104" value="" style="edgeStyle=none;rounded=0;orthogonalLoop=1;jettySize=auto;html=1;" edge="1" parent="1" source="_9gmj-2kIgi6-tLGqkVm-99" target="_9gmj-2kIgi6-tLGqkVm-103">
          <mxGeometry relative="1" as="geometry" />
        </mxCell>
        <mxCell id="_9gmj-2kIgi6-tLGqkVm-106" value="" style="edgeStyle=none;rounded=0;orthogonalLoop=1;jettySize=auto;html=1;" edge="1" parent="1" source="_9gmj-2kIgi6-tLGqkVm-99" target="_9gmj-2kIgi6-tLGqkVm-105">
          <mxGeometry relative="1" as="geometry" />
        </mxCell>
        <mxCell id="_9gmj-2kIgi6-tLGqkVm-99" value="是否在APP环境" style="rhombus;whiteSpace=wrap;html=1;rounded=1;" vertex="1" parent="1">
          <mxGeometry x="445" y="690" width="130" height="80" as="geometry" />
        </mxCell>
        <mxCell id="_9gmj-2kIgi6-tLGqkVm-103" value="提示请下载APP" style="ellipse;whiteSpace=wrap;html=1;rounded=1;" vertex="1" parent="1">
          <mxGeometry x="230" y="690" width="110" height="80" as="geometry" />
        </mxCell>
        <mxCell id="_9gmj-2kIgi6-tLGqkVm-105" value="原生/加油页面" style="ellipse;whiteSpace=wrap;html=1;rounded=1;" vertex="1" parent="1">
          <mxGeometry x="445" y="800" width="130" height="70" as="geometry" />
        </mxCell>
      </root>
    </mxGraphModel>
  </diagram>
</mxfile>
